# xmcd
# 
# Track frame offsets:
#   300
#   17213
#   36496
#   54462
#   70052
#   88735
#   105567
#   118907
#   138778
#   154923
#   170927
#   190189
#   210600
#   226748
#   244312
# 
# Disc length: 3493 seconds
# 
# Revision: 0
# Processed by: cddbd v1.5.2PL0 Copyright (c) Steve Scherf et al.
# Submitted via: Synapstar 1.0 
# 
DISCID=d70da10f
DTITLE=Various Artist - Chartbuster Karaoke Country Hits April 2009
DYEAR=1900
DGENRE=Country
TTITLE0=Montgomery Gentry - One In Every Crowd
TTITLE1=Rascal Flatts - Here Comes Goodbye
TTITLE2=Lady Antebellum - I Run To You
TTITLE3=Phil Vassar - Prayer Of A Common Man
TTITLE4=Chuck Wicks - Man Of The House
TTITLE5=Holly Williams - Keep The Change
TTITLE6=Eric Church - Love Your Love The Most
TTITLE7=Kid Rock - Blue Jeans And A Rasary
TTITLE8=Danielle Peck - Can't Behave
TTITLE9=Daryl Whorley - Sounds Like Life to Me
TTITLE10=David Nail - Red Light
TTITLE11=Dolly Parton - Drives Me Crazy
TTITLE12=Jeff Bates - One Thing
TTITLE13=Johnathan Singlton and The Grove - Livin' In Paradise
TTITLE14=Jessica Simpson - Pray Out Loud
EXTD=MediaType: Karaoke CD+G Producer: Chartbuster
EXTT0=
EXTT1=
EXTT2=
EXTT3=
EXTT4=
EXTT5=
EXTT6=
EXTT7=
EXTT8=
EXTT9=
EXTT10=
EXTT11=
EXTT12=
EXTT13=
EXTT14=
PLAYORDER=
